<svg viewBox="0 0 35 26" fill="none" xmlns="http://www.w3.org/2000/svg">
<rect y="0.859375" width="35" height="25" fill="#FF0000"/>
<path d="M12.7814 6.64337C13.3574 6.64337 13.8588 6.73404 14.2854 6.91537C14.7121 7.08604 15.1334 7.35804 15.5494 7.73137L14.7814 8.62737C14.4721 8.36071 14.1628 8.16337 13.8534 8.03537C13.5548 7.90737 13.2241 7.84337 12.8614 7.84337C12.0294 7.84337 11.3681 8.20071 10.8774 8.91537C10.3868 9.61937 10.1414 10.7607 10.1414 12.3394C10.1414 13.8754 10.3868 15.0114 10.8774 15.7474C11.3681 16.4727 12.0294 16.8354 12.8614 16.8354C13.2774 16.8354 13.6348 16.7607 13.9334 16.6114C14.2321 16.462 14.5574 16.2434 14.9094 15.9554L15.6614 16.8354C14.8614 17.6567 13.9014 18.0674 12.7814 18.0674C11.9601 18.0674 11.2294 17.854 10.5894 17.4274C9.9601 17.0007 9.4641 16.3607 9.10144 15.5074C8.74944 14.6434 8.57344 13.5874 8.57344 12.3394C8.57344 11.102 8.75477 10.0567 9.11744 9.20337C9.49077 8.35004 9.9921 7.71004 10.6214 7.28337C11.2614 6.85671 11.9814 6.64337 12.7814 6.64337ZM26.3476 17.8594H24.9236L24.5876 12.8834C24.4382 10.654 24.3582 9.11804 24.3476 8.27537L22.2356 16.6114H20.8436L18.6356 8.27537C18.6462 9.20337 18.5876 10.75 18.4596 12.9154L18.1396 17.8594H16.7316L17.5796 6.85137H19.5156L21.5636 14.9954L23.5316 6.85137H25.4996L26.3476 17.8594Z" fill="white"/>
</svg>
