<svg viewBox="0 0 18 18" fill="none" xmlns="http://www.w3.org/2000/svg">
<path d="M6.75 1.5H3C2.17157 1.5 1.5 2.17157 1.5 3V8.25C1.5 9.07843 2.17157 9.75 3 9.75H6.75C7.57843 9.75 8.25 9.07843 8.25 8.25V3C8.25 2.17157 7.57843 1.5 6.75 1.5Z" fill="#FF0000"/>
<path d="M15 1.5H11.25C10.4216 1.5 9.75 2.17157 9.75 3V5.25C9.75 6.07843 10.4216 6.75 11.25 6.75H15C15.8284 6.75 16.5 6.07843 16.5 5.25V3C16.5 2.17157 15.8284 1.5 15 1.5Z" fill="#FF0000"/>
<path d="M6.75 11.25H3C2.17157 11.25 1.5 11.9216 1.5 12.75V15C1.5 15.8284 2.17157 16.5 3 16.5H6.75C7.57843 16.5 8.25 15.8284 8.25 15V12.75C8.25 11.9216 7.57843 11.25 6.75 11.25Z" fill="#FF0000"/>
<path d="M15 8.25H11.25C10.4216 8.25 9.75 8.92157 9.75 9.75V15C9.75 15.8284 10.4216 16.5 11.25 16.5H15C15.8284 16.5 16.5 15.8284 16.5 15V9.75C16.5 8.92157 15.8284 8.25 15 8.25Z" fill="#FF0000"/>
</svg>
