<svg viewBox="0 0 50 50" fill="none" xmlns="http://www.w3.org/2000/svg">
<path d="M20.3125 25C20.3125 22.4112 22.4112 20.3125 25 20.3125C27.5887 20.3125 29.6875 22.4112 29.6875 25C29.6875 27.5887 27.5887 29.6875 25 29.6875C22.4112 29.6875 20.3125 27.5887 20.3125 25Z" fill="white"/>
<path fill-rule="evenodd" clip-rule="evenodd" d="M4.16675 25.0007C4.16675 28.4161 5.05208 29.5663 6.82277 31.8667C10.3583 36.4598 16.2878 41.6673 25.0001 41.6673C33.7124 41.6673 39.6417 36.4598 43.1774 31.8667C44.948 29.5663 45.8334 28.4161 45.8334 25.0007C45.8334 21.5852 44.948 20.4351 43.1774 18.1347C39.6417 13.5414 33.7124 8.33398 25.0001 8.33398C16.2878 8.33398 10.3583 13.5414 6.82277 18.1347C5.05208 20.4351 4.16675 21.5852 4.16675 25.0007ZM25.0001 17.1882C20.6854 17.1882 17.1876 20.6859 17.1876 25.0007C17.1876 29.3154 20.6854 32.8132 25.0001 32.8132C29.3149 32.8132 32.8126 29.3154 32.8126 25.0007C32.8126 20.6859 29.3149 17.1882 25.0001 17.1882Z" fill="white"/>
</svg>
