<svg viewBox="0 0 35 26" fill="none" xmlns="http://www.w3.org/2000/svg">
<rect y="0.859375" width="35" height="25" fill="#FF0000"/>
<path d="M12.473 6.85137V17.8594H10.985V6.85137H12.473ZM17.881 6.85137L14.153 11.8754L18.137 17.8594H16.425L12.537 11.9714L16.297 6.85137H17.881ZM25.3314 9.74737C24.8727 9.92871 24.1634 10.0194 23.2034 10.0194C24.0994 10.4674 24.5474 11.2034 24.5474 12.2274C24.5474 13.07 24.2807 13.7527 23.7474 14.2754C23.2247 14.7874 22.51 15.0434 21.6034 15.0434C21.262 15.0434 20.9527 14.99 20.6754 14.8834C20.3767 15.0967 20.2274 15.3687 20.2274 15.6994C20.2274 16.2007 20.5794 16.4514 21.2834 16.4514H22.3874C23.2194 16.4514 23.8807 16.6647 24.3714 17.0914C24.862 17.5074 25.1074 18.0407 25.1074 18.6914C25.1074 19.4807 24.8034 20.0994 24.1954 20.5474C23.5874 21.006 22.6967 21.2354 21.5234 21.2354C20.3074 21.2354 19.4434 21.0274 18.9314 20.6114C18.43 20.1954 18.1794 19.5607 18.1794 18.7074H19.4754C19.4754 19.0594 19.534 19.3367 19.6514 19.5394C19.7794 19.7527 19.9874 19.9074 20.2754 20.0034C20.574 20.11 20.9954 20.1634 21.5394 20.1634C22.2967 20.1634 22.8407 20.046 23.1714 19.8114C23.502 19.5767 23.6674 19.2407 23.6674 18.8034C23.6674 18.398 23.5287 18.0887 23.2514 17.8754C22.9847 17.662 22.6007 17.5554 22.0994 17.5554H21.1554C20.4194 17.5554 19.87 17.4167 19.5074 17.1394C19.1447 16.8514 18.9634 16.4727 18.9634 16.0034C18.9634 15.4594 19.2567 14.974 19.8434 14.5474C19.3954 14.2914 19.0594 13.9714 18.8354 13.5874C18.622 13.1927 18.5154 12.718 18.5154 12.1634C18.5154 11.2887 18.7927 10.5847 19.3474 10.0514C19.902 9.51804 20.6327 9.25137 21.5394 9.25137C22.382 9.25137 23.0327 9.19271 23.4914 9.07537C23.9607 8.95804 24.4407 8.77671 24.9314 8.53137L25.3314 9.74737ZM21.5554 10.2594C21.0327 10.2594 20.6327 10.4247 20.3554 10.7554C20.0887 11.0754 19.9554 11.5447 19.9554 12.1634C19.9554 12.7607 20.094 13.23 20.3714 13.5714C20.6594 13.902 21.054 14.0674 21.5554 14.0674C22.6114 14.0674 23.1394 13.4274 23.1394 12.1474C23.1394 11.5287 23.006 11.0594 22.7394 10.7394C22.4727 10.4194 22.078 10.2594 21.5554 10.2594Z" fill="white"/>
</svg>
