<svg viewBox="0 0 30 37" fill="none" xmlns="http://www.w3.org/2000/svg">
<path d="M14.6075 25.3637C15.616 25.3637 16.4336 24.5461 16.4336 23.5377C16.4336 22.5292 15.616 21.7116 14.6075 21.7116C13.599 21.7116 12.7815 22.5292 12.7815 23.5377C12.7815 24.5461 13.599 25.3637 14.6075 25.3637Z" fill="white"/>
<path d="M23.7386 10.7554H21.9125V7.30417C21.9125 5.36699 21.143 3.50914 19.7732 2.13934C18.4034 0.769545 16.5455 0 14.6083 0C12.6712 0 10.8133 0.769545 9.44351 2.13934C8.07372 3.50914 7.30417 5.36699 7.30417 7.30417V10.7554H5.47813C4.02524 10.7554 2.63186 11.3326 1.60451 12.3599C0.577159 13.3872 0 14.7806 0 16.2335V30.8419C0 32.2948 0.577159 33.6881 1.60451 34.7155C2.63186 35.7428 4.02524 36.32 5.47813 36.32H23.7386C25.1915 36.32 26.5848 35.7428 27.6122 34.7155C28.6395 33.6881 29.2167 32.2948 29.2167 30.8419V16.2335C29.2167 14.7806 28.6395 13.3872 27.6122 12.3599C26.5848 11.3326 25.1915 10.7554 23.7386 10.7554ZM10.9563 7.30417C10.9317 6.30952 11.3022 5.34565 11.9867 4.62354C12.6711 3.90143 13.6138 3.4799 14.6083 3.45122C15.6029 3.4799 16.5456 3.90143 17.23 4.62354C17.9145 5.34565 18.285 6.30952 18.2604 7.30417V10.7554H10.9563V7.30417ZM14.6083 29.0158C13.5249 29.0158 12.4657 28.6945 11.5649 28.0926C10.664 27.4907 9.96184 26.6351 9.54721 25.6341C9.13259 24.6331 9.0241 23.5316 9.23548 22.469C9.44685 21.4063 9.96859 20.4302 10.7347 19.6641C11.5009 18.8979 12.477 18.3762 13.5396 18.1648C14.6023 17.9535 15.7037 18.0619 16.7047 18.4766C17.7057 18.8912 18.5613 19.5933 19.1632 20.4942C19.7652 21.3951 20.0865 22.4542 20.0865 23.5377C20.0865 24.9906 19.5093 26.384 18.482 27.4113C17.4546 28.4387 16.0612 29.0158 14.6083 29.0158Z" fill="white"/>
</svg>
