<svg viewBox="0 0 24 24" fill="none" xmlns="http://www.w3.org/2000/svg">
<g clip-path="url(#clip0_355_6000)">
<path d="M0 7.40626V16.5705C0 17.4143 0.35175 18.1643 0.91425 18.75C1.47675 19.3125 2.2035 19.617 3.04725 19.617H7.641V17.7188H3.04725C2.41425 17.7188 1.92225 17.2028 1.92225 16.5705V7.40626C1.92225 6.77326 2.41425 6.28126 3.04725 6.28126H7.641V4.35901H3.04725C2.2035 4.35901 1.47675 4.68751 0.91425 5.25001C0.35175 5.83576 0 6.56251 0 7.40626ZM5.03925 10.1723V13.8285C5.03925 14.2508 5.41425 14.6018 5.8365 14.6018H10.0785V17.4848C10.0785 17.7428 10.2195 17.9535 10.4535 18.0705C10.5472 18.0938 10.641 18.0938 10.6883 18.0938C10.8525 18.0938 10.9928 18.0465 11.1105 17.9295L16.6185 12.4215C16.8765 12.2108 16.8533 11.7885 16.6185 11.5545L11.1105 6.06976C10.782 5.71801 10.0793 5.92876 10.0793 6.49201V9.39826H5.83725C5.415 9.39826 5.04 9.75001 5.04 10.1715L5.03925 10.1723Z" fill="#FF0000"/>
</g>
<defs>
<clipPath id="clip0_355_6000">
<rect width="24" height="24" fill="white"/>
</clipPath>
</defs>
</svg>
