<svg viewBox="0 0 20 20" fill="none" xmlns="http://www.w3.org/2000/svg">
<path d="M16.1165 12.075L15.2832 10.6917C15.1082 10.3833 14.9498 9.80001 14.9498 9.45834V7.35001C14.9498 5.39167 13.7998 3.70001 12.1415 2.90834C11.7082 2.14167 10.9082 1.66667 9.9915 1.66667C9.08317 1.66667 8.26654 2.15834 7.8332 2.93334C6.2082 3.74167 5.0832 5.41667 5.0832 7.35001V9.45834C5.0832 9.80001 4.92487 10.3833 4.74987 10.6833L3.9082 12.075C3.57487 12.6333 3.49987 13.25 3.7082 13.8167C3.9082 14.375 4.3832 14.8083 4.99987 15.0167C6.61654 15.5667 8.31654 15.8333 10.0165 15.8333C11.7165 15.8333 13.4165 15.5667 15.0332 15.025C15.6165 14.8333 16.0665 14.3917 16.2832 13.8167C16.4998 13.2417 16.4415 12.6083 16.1165 12.075Z" fill="#FF0000"/>
<path d="M12.358 16.675C12.008 17.6417 11.083 18.3333 9.99967 18.3333C9.34133 18.3333 8.69133 18.0667 8.23299 17.5917C7.96632 17.3417 7.76632 17.0083 7.64966 16.6667C7.75799 16.6833 7.86632 16.6917 7.98299 16.7083C8.17466 16.7333 8.37467 16.7583 8.57467 16.775C9.04967 16.8167 9.533 16.8417 10.0163 16.8417C10.4913 16.8417 10.9663 16.8167 11.433 16.775C11.608 16.7583 11.783 16.75 11.9497 16.725C12.083 16.7083 12.2163 16.6917 12.358 16.675Z" fill="#FF0000"/>
</svg>
