<svg viewBox="0 0 18 19" fill="none" xmlns="http://www.w3.org/2000/svg">
<path d="M9.82957 17.4785H8.17042C5.58553 17.4785 4.29307 17.4785 3.41177 16.7197C2.53047 15.9608 2.34769 14.6905 1.98213 12.1499L1.77305 10.6969C1.48847 8.71912 1.34618 7.73023 1.75153 6.88473C2.15687 6.03922 3.01964 5.52527 4.74518 4.49737L5.78381 3.87867C7.35078 2.94523 8.13427 2.47852 9 2.47852C9.86572 2.47852 10.6492 2.94523 12.2161 3.87867L13.2548 4.49737C14.9803 5.52527 15.8431 6.03922 16.2484 6.88473C16.6538 7.73023 16.5115 8.71912 16.2269 10.6969L16.0179 12.1499C15.6523 14.6905 15.4695 15.9608 14.5882 16.7197C13.7069 17.4785 12.4144 17.4785 9.82957 17.4785Z" fill="white"/>
<path d="M6.1875 14.4785C6.1875 14.1679 6.43934 13.916 6.75 13.916H11.25C11.5606 13.916 11.8125 14.1679 11.8125 14.4785C11.8125 14.7892 11.5606 15.041 11.25 15.041H6.75C6.43934 15.041 6.1875 14.7892 6.1875 14.4785Z" fill="#1F1F1F"/>
</svg>
