<svg viewBox="0 0 18 18" fill="none" xmlns="http://www.w3.org/2000/svg">
<g clip-path="url(#clip0_355_6037)">
<path d="M11.6918 11.0002C11.7346 10.8402 11.7127 10.6732 11.6299 10.5298L10.3392 8.29417C10.2288 8.10295 10.0228 7.98402 9.80168 7.98402C9.6935 7.98402 9.58655 8.01283 9.49242 8.06721L8.81961 8.4557C8.54618 8.25512 8.25049 8.08325 7.93702 7.94438V7.16928C7.93702 6.82741 7.65884 6.54938 7.31707 6.54938H4.73551C4.39374 6.54938 4.11566 6.82741 4.11566 7.16928V7.94433C3.80214 8.0832 3.50649 8.25512 3.23301 8.4557L2.56021 8.06726C2.46608 8.01287 2.35908 7.98412 2.2509 7.98412C2.02978 7.98412 1.82386 8.10294 1.71339 8.29422L0.422714 10.5298C0.339918 10.6732 0.317895 10.8402 0.360704 11.0002C0.403611 11.1602 0.506153 11.2939 0.649523 11.3766L1.32045 11.7639C1.30239 11.9317 1.29279 12.102 1.29279 12.2745C1.29279 12.4471 1.30234 12.6174 1.32045 12.7852L0.649523 13.1726C0.506103 13.2553 0.403611 13.389 0.360704 13.549C0.317895 13.7089 0.339918 13.876 0.422714 14.0194L1.71335 16.255C1.82381 16.4463 2.02978 16.5651 2.25085 16.5651C2.35903 16.5651 2.46603 16.5364 2.56016 16.482L3.23301 16.0935C3.50644 16.2941 3.80214 16.466 4.11561 16.6049V17.3799C4.11561 17.5455 4.18009 17.7011 4.29723 17.8182C4.41432 17.9353 4.57002 17.9999 4.73546 17.9999H7.31702C7.65879 17.9999 7.93697 17.7217 7.93697 17.3799V16.6048C8.25044 16.4659 8.54609 16.2941 8.81951 16.0935L9.49237 16.4819C9.5865 16.5364 9.6935 16.5651 9.80163 16.5651C10.0228 16.5651 10.2287 16.4463 10.3392 16.255L11.6298 14.0193C11.7126 13.876 11.7346 13.7089 11.6918 13.5489C11.649 13.3889 11.5464 13.2552 11.4031 13.1725L10.7321 12.7851C10.7502 12.6173 10.7597 12.447 10.7597 12.2744C10.7597 12.1019 10.7502 11.9316 10.7321 11.7638L11.4031 11.3765C11.5465 11.2939 11.649 11.1602 11.6918 11.0002ZM6.02629 14.9667C4.53948 14.9667 3.33427 13.7615 3.33427 12.2746C3.33427 10.7879 4.53953 9.58263 6.02629 9.58263C7.51305 9.58263 8.71836 10.7879 8.71836 12.2746C8.71836 13.7614 7.5131 14.9667 6.02629 14.9667Z" fill="#FF0000"/>
<path d="M8.28999 4.63185C8.26168 4.73776 8.27628 4.84832 8.33106 4.94314L9.18505 6.42247C9.25824 6.54912 9.39444 6.62766 9.54078 6.62766C9.61239 6.62766 9.68311 6.60865 9.74552 6.57267L10.191 6.31548C10.3719 6.44811 10.5674 6.56154 10.7747 6.65334V7.16689C10.7747 7.27646 10.8174 7.37945 10.8949 7.45695C10.9724 7.53445 11.0754 7.57706 11.1849 7.57706H12.8931C13.1193 7.57706 13.3034 7.39306 13.3034 7.16689V6.65334C13.5107 6.56149 13.7062 6.44806 13.8871 6.31543L14.3327 6.57267C14.3949 6.6087 14.4657 6.62766 14.5373 6.62766C14.6837 6.62766 14.82 6.54907 14.893 6.42247L15.747 4.94314C15.8019 4.84832 15.8164 4.73776 15.7881 4.63185C15.7597 4.52599 15.6919 4.43756 15.597 4.38277L15.1529 4.12632C15.1648 4.01531 15.1713 3.90268 15.1713 3.78855C15.1713 3.67443 15.1648 3.56184 15.1529 3.45079L15.597 3.19439C15.6919 3.1396 15.7597 3.05111 15.7881 2.94526C15.8164 2.8394 15.8018 2.72889 15.747 2.63397L14.893 1.15463C14.82 1.02804 14.6837 0.949403 14.5373 0.949403C14.4657 0.949403 14.3949 0.968456 14.3327 1.00448L13.8871 1.26173C13.7062 1.1291 13.5107 1.01567 13.3034 0.923866V0.410217C13.3034 0.184051 13.1193 0 12.8931 0H11.1849C10.9587 0 10.7747 0.184051 10.7747 0.410217V0.923817C10.5675 1.01567 10.3719 1.1291 10.1911 1.26168L9.74552 1.00443C9.68311 0.968357 9.61244 0.949353 9.54078 0.949353C9.39449 0.949353 9.25824 1.02804 9.18505 1.15459L8.33106 2.63392C8.27628 2.72884 8.26168 2.83935 8.28999 2.94521C8.31839 3.05111 8.38624 3.13955 8.48106 3.19434L8.92523 3.45074C8.9133 3.56174 8.90677 3.67438 8.90677 3.7885C8.90677 3.90268 8.9133 4.01526 8.92523 4.12627L8.48106 4.38272C8.38624 4.43756 8.31839 4.52599 8.28999 4.63185ZM12.039 2.00719C13.0229 2.00719 13.8204 2.80476 13.8204 3.78855C13.8204 4.77235 13.0229 5.56992 12.039 5.56992C11.0552 5.56992 10.2576 4.77235 10.2576 3.78855C10.2576 2.80476 11.0552 2.00719 12.039 2.00719Z" fill="#FF0000"/>
<path d="M17.5193 10.3669L17.2135 10.1903C17.2218 10.1139 17.2263 10.0364 17.2263 9.95778C17.2263 9.87919 17.2218 9.80169 17.2135 9.72523L17.5193 9.5487C17.5846 9.51099 17.6313 9.45012 17.6508 9.37722C17.6704 9.30432 17.6603 9.22826 17.6226 9.16293L17.0347 8.14464C16.9844 8.05744 16.8906 8.00335 16.7899 8.00335C16.7406 8.00335 16.6919 8.01646 16.649 8.04126L16.3423 8.21833C16.2178 8.12702 16.0832 8.04893 15.9405 7.98573V7.63218C15.9405 7.47653 15.8138 7.34979 15.6581 7.34979H14.4823C14.3265 7.34979 14.1999 7.47653 14.1999 7.63218V7.98573C14.0572 8.04893 13.9226 8.12702 13.7981 8.21833L13.4913 8.04126C13.4485 8.01646 13.3997 8.00335 13.3505 8.00335C13.2497 8.00335 13.1559 8.05744 13.1057 8.14464L12.5178 9.16293C12.48 9.22826 12.4699 9.30432 12.4895 9.37722C12.5091 9.45012 12.5558 9.51099 12.621 9.5487L12.9269 9.72523C12.9186 9.80164 12.9141 9.87914 12.9141 9.95773C12.9141 10.0363 12.9186 10.1138 12.9269 10.1902L12.621 10.3668C12.5558 10.4044 12.509 10.4652 12.4895 10.5382C12.4699 10.6111 12.48 10.6872 12.5178 10.7525L13.1057 11.7708C13.156 11.858 13.2497 11.9121 13.3505 11.9121C13.3997 11.9121 13.4484 11.8989 13.4913 11.8742L13.7981 11.6971C13.9226 11.7884 14.0572 11.8664 14.1999 11.9297V12.2832C14.1999 12.3586 14.2292 12.4296 14.2826 12.4829C14.3359 12.5363 14.4069 12.5656 14.4823 12.5656H15.6581C15.8138 12.5656 15.9405 12.4389 15.9405 12.2832V11.9297C16.0832 11.8665 16.2178 11.7884 16.3423 11.6971L16.649 11.8742C16.6919 11.8989 16.7406 11.9121 16.7899 11.9121C16.8906 11.9121 16.9844 11.858 17.0347 11.7708L17.6226 10.7525C17.6603 10.6872 17.6704 10.6111 17.6508 10.5382C17.6313 10.4653 17.5846 10.4045 17.5193 10.3669ZM15.0702 11.184C14.3929 11.184 13.844 10.6349 13.844 9.95778C13.844 9.28052 14.3929 8.73148 15.0702 8.73148C15.7475 8.73148 16.2964 9.28057 16.2964 9.95778C16.2964 10.635 15.7474 11.184 15.0702 11.184Z" fill="#FF0000"/>
</g>
<defs>
<clipPath id="clip0_355_6037">
<rect width="18" height="18" fill="white"/>
</clipPath>
</defs>
</svg>
