<svg width="435" height="289" viewBox="0 0 435 289" fill="none" xmlns="http://www.w3.org/2000/svg">
<g opacity="0.5" clip-path="url(#clip0_418_3122)">
<path d="M422.693 234.215C412.362 231.639 403.36 225.71 396.714 222.102C390.068 218.495 384.19 218.483 378.51 217.717C372.831 216.95 365.732 213.078 365.732 213.078C361.08 195.288 361.129 178.277 362.071 171.056C363.014 163.835 364.911 149.743 364.911 139.862C364.911 129.981 363.968 125.167 366.034 116.939C367.26 111.569 367.465 106.018 366.639 100.573C372.511 101.411 367.025 88.9062 367.545 84.5206C368.064 80.1351 367.545 82.5903 365.479 75.5625C363.412 68.5347 364.874 71.376 364.512 65.3798C364.149 59.3835 353.86 59.0035 350.954 57.7125C348.048 56.4216 339.076 53.7794 336.454 52.6212C331.47 50.6115 326.119 49.6662 320.746 49.8463C313.496 50.0453 298.996 55.7761 292.35 56.7474C285.704 57.7186 268.184 59.7093 263.821 60.2281C259.459 60.7469 248.971 61.9654 242.839 63.7691C236.706 65.5728 220.702 70.8572 215.73 72.0215C210.758 73.1857 198.106 74.2112 193.074 75.7555C188.041 77.2998 177.649 79.4956 172.804 76.0149C167.958 72.5342 156.926 69.892 146.081 68.776C135.237 67.66 123.492 75.0256 121.879 77.5411C120.265 80.0566 119.099 81.5346 117.166 82.7592C115.233 83.9837 111.161 85.0816 111.161 85.0816C111.526 81.5698 112.284 78.1098 113.42 74.7662C115.293 69.2888 112.647 62.2007 113.034 60.8434C113.42 59.4861 114.58 57.6884 112.647 55.2392C110.714 52.7901 112.127 51.6198 112.127 51.6198C112.536 48.3064 112.645 44.963 112.454 41.6301C112.194 35.3142 108.224 29.3843 108.224 29.3843C108.998 21.711 101.639 20.2331 101.059 15.7208C100.479 11.2086 95.3133 9.40489 95.3133 9.40489C94.7052 7.14161 93.2496 5.19803 91.2473 3.97571C93.0598 5.52604 93.8935 10.8708 93.3135 11.3896C92.7335 11.9083 91.1144 7.84249 91.1144 7.84249C91.3742 6.55759 88.5346 3.1372 88.5346 3.1372C88.5346 3.1372 87.7612 8.56638 87.8881 7.5831C88.015 6.59981 85.695 3.91538 85.695 3.91538L84.9217 6.32835C84.7283 4.46434 82.8554 2.98036 82.8554 2.98036C82.8554 2.98036 83.2421 4.97709 80.6623 4.97709C78.0825 4.97709 74.0164 0.754395 74.0164 0.754395C74.0164 0.754395 72.6631 1.5929 73.956 4.16875C75.2489 6.74459 73.3519 6.29819 73.3519 6.29819C72.5785 5.45969 69.8658 4.16875 69.8658 4.16875C71.0319 5.52604 71.6119 8.16824 71.6119 8.16824C71.6119 8.16824 69.3523 5.00725 67.4794 5.52604C65.6064 6.04483 64.4585 10.4847 64.4585 10.4847L64.1383 8.29492L62.1989 11.1965L63.0387 8.29492C62.3923 8.29492 58.586 13.3199 58.586 13.3199L59.1902 11.2568C50.8648 15.9621 51.336 23.376 50.7319 23.0563C50.1277 22.7365 48.1521 25.053 48.1521 25.053C50.0854 25.6985 50.2183 30.2107 50.2183 30.2107C49.0221 29.7643 45.5964 32.7323 45.5964 32.7323C46.3412 32.8256 47.035 33.1597 47.5717 33.6836C48.1085 34.2076 48.4587 34.8925 48.5689 35.6339H45.2098C45.2098 35.6339 50.1821 38.2097 48.1158 42.3359C46.0496 46.4621 47.7956 56.8137 47.7956 56.8137C38.3706 63.2563 50.5023 77.698 53.6017 81.432C55.4654 83.8075 56.3436 86.8073 56.0546 89.8111C57.0877 106.31 48.8046 112.24 39.7904 120.619C30.7762 128.998 29.8458 131.592 29.6042 137.009C29.3625 142.426 27.2781 140.743 16.82 152.476C6.36186 164.209 8.56103 175.031 9.56999 180.708C10.5789 186.384 6.98415 192.694 4.13249 203.263C1.28082 213.832 -1.30501 231.235 0.646445 250.829C2.5979 270.422 18.4875 275.839 18.4875 275.839C18.4875 275.839 87.4229 279.706 89.7792 279.458C92.1354 279.211 97.1379 276.623 103.071 281.654C109.004 286.685 115.849 285.648 118.175 285.648C120.501 285.648 125.147 282.939 129.147 285.129C133.146 287.319 136.765 290.16 141.931 288.018C147.096 285.877 139.091 283.325 135.605 280.49C132.119 277.655 136.119 279.845 139.865 280.749C143.61 281.654 149.936 285.907 157.935 287.711C165.934 289.514 164.007 282.68 167.493 285.129C170.979 287.578 171.493 284.876 173.299 282.04C175.106 279.205 172.786 277.655 168.266 276.364C163.747 275.073 160.134 270.935 153.676 266.959C147.217 262.984 144.897 264.51 142.317 261.802C139.738 259.093 137.925 261.415 133.255 260.125C128.585 258.834 125.401 261.675 111.698 256.505C97.9958 251.335 102.14 253.67 94.5279 251.474C86.9154 249.278 75.551 251.221 69.9987 249.664C64.4464 248.108 61.0873 249.664 57.861 246.443C54.6348 243.222 50.611 241.931 45.7294 241.418C40.8477 240.905 44.4364 237.032 44.4364 237.032C54.5079 227.755 55.0214 207.673 55.0214 207.673C55.0214 207.673 57.0031 209.482 61.9935 211.895C66.9839 214.308 76.3667 218.905 94.8542 229.474C113.342 240.043 123.25 244.706 130.85 247.993C138.451 251.281 151.996 256.885 158.038 257.591C164.08 258.297 168.103 259.401 171.934 263.074C175.764 266.748 186.845 271.447 193.17 271.9C199.496 272.352 201.302 273.643 206.661 273.77C212.02 273.897 223.246 274.801 230.604 275.061C237.963 275.32 258.233 276.219 271.917 277.377C285.602 278.535 297.739 275.061 312.97 277.251C328.201 279.44 359.449 271.707 368.481 268.745C377.514 265.783 382.299 269.517 396.37 275.447C410.441 281.377 435 284.888 435 284.888V236.779C435 236.779 433.018 236.779 422.693 234.215ZM270.745 112.39C254.608 129.529 248.391 143.192 243.558 150.799C238.724 158.406 230.792 168.202 230.792 168.202C230.359 168.242 229.941 168.379 229.568 168.602C229.196 168.826 228.879 169.13 228.641 169.493C227.692 170.778 227.952 169.15 226.919 169.493C225.886 169.837 226.49 169.747 225.541 170.7C224.593 171.653 224.508 171.556 223.904 171.219C223.3 170.881 223.735 170.784 222.013 171.991C220.291 173.197 219.947 172.335 218.388 172.419C216.829 172.504 215.887 171.556 215.458 173.022C215.458 173.022 204.958 173.276 200.227 173.022C195.496 172.769 192.977 171.816 192.977 171.816C192.977 171.816 190.397 165.783 185.491 163.907C180.585 162.031 178.694 162.279 176.797 160.288C174.9 158.297 172.755 155.221 170.345 153.049C167.934 150.877 166.72 152.361 166.72 147.288C166.72 142.215 165.252 138.239 165.856 136.116C166.46 133.993 166.629 133.371 164.998 131.29C163.367 129.209 161.125 118.996 160.732 115.563C160.732 115.563 186.295 120.202 193.913 117.627C201.532 115.051 209.144 112.728 214.31 112.083C219.476 111.437 229.028 106.654 234.966 106.05C240.905 105.447 251.104 104.373 257.17 101.924C263.235 99.475 274.92 95.9943 289.964 86.9034C305.008 77.8126 321.525 69.8256 321.525 69.8256C321.525 69.8256 325.078 68.7941 326.359 70.9839C326.383 71.008 286.883 95.2463 270.745 112.39ZM283.868 212.203C309.515 191.988 321.864 163.817 321.864 163.817C324.151 169.219 326.05 174.777 327.549 180.448C329.742 189.081 331.633 210.14 331.633 210.14C323.374 209.88 283.868 212.203 283.868 212.203Z" fill="#313131"/>
</g>
<defs>
<clipPath id="clip0_418_3122">
<rect width="435" height="288" fill="white" transform="translate(0 0.760254)"/>
</clipPath>
</defs>
</svg>
