<svg width="162" height="563" viewBox="0 0 162 563" fill="none" xmlns="http://www.w3.org/2000/svg">
<g opacity="0.5" clip-path="url(#clip0_418_3126)">
<path d="M160.956 130.817C159.087 121.793 153.395 120.334 151.611 118.57C149.828 116.806 148.714 113.59 145.381 110.062C142.048 106.533 126.27 92.3196 124.603 88.2685C122.937 84.2174 126.161 76.8568 126.161 76.8568C133.816 70.1128 132.679 58.4903 132.679 58.4903C136.822 56.8277 136.822 56.414 140.031 45.416C143.239 34.418 134.237 41.4664 136.511 38.4612C138.785 35.4561 137.033 30.2576 138.271 27.0417C139.509 23.8258 137.235 24.7625 138.068 21.9603C138.902 19.1581 136.924 19.9855 137.033 16.7696C137.142 13.5537 133.513 13.4522 133.715 12.0863C133.797 11.4988 133.664 10.9014 133.341 10.4048C133.017 9.90815 132.525 9.54601 131.955 9.38554C130.919 9.07332 129.159 8.45668 129.782 6.89557C130.405 5.33446 128.022 6.89557 122.843 3.46893C117.665 0.0422935 112.805 1.81415 110.523 1.81415C108.241 1.81415 108.569 1.10385 106.598 0.760405C104.628 0.41696 105.461 2.7274 102.977 2.7274C100.493 2.7274 98.904 5.2564 98.904 5.2564C97.8682 3.69529 94.6597 5.35788 94.6597 5.35788C97.7747 4.8349 97.9694 6.59896 97.9694 6.59896C94.8543 8.36302 94.8543 10.7515 94.8543 10.7515C88.0167 13.2415 89.403 18.9473 89.403 18.9473L83.3986 23.9351L88.6787 20.1962C89.0408 21.1098 89.2091 22.089 89.1729 23.0714C89.1367 24.0537 88.8968 25.0178 88.4684 25.9021C87.0199 29.0243 88.6787 38.149 88.6787 38.149C83.8114 36.1742 85.6726 43.3397 86.8174 48.9441C87.9622 54.5485 92.1987 60.5275 92.1987 60.5275C90.9527 62.4633 92.0586 67.3106 90.5166 70.0737C88.9746 72.8369 83.2273 74.0858 71.7716 72.7667C60.3158 71.4475 61.6475 74.7805 48.5798 72.9852C35.512 71.1899 34.4996 80.7283 27.88 88.8929C21.2605 97.0575 23.3631 102.873 15.0381 115.182C6.71301 127.491 10.9028 158.628 8.27055 166.652C5.6383 174.676 10.0695 177.728 11.1676 179.25C12.2656 180.772 29.1183 204.571 29.1183 204.571C25.6683 212.041 28.5653 237.081 28.2928 242.483C28.0202 247.884 25.8085 267.664 22.3507 270.833C21.3447 271.801 20.5918 273.002 20.1585 274.331C19.7253 275.659 19.625 277.074 19.8665 278.451C13.6363 285.64 13.5195 301.134 8.6833 305.286C3.84713 309.439 8.96366 325.495 4.54024 331.045C0.116817 336.594 3.16181 363.274 2.33631 364.655C1.51082 366.037 3.16181 368.808 3.16181 368.808C1.977 369.85 0.953402 371.063 0.124604 372.406C-0.841072 374.202 4.01846 383.194 4.01846 383.194C-0.560714 394.941 12.2734 399.804 16.2763 409.483C20.2792 419.162 21.5252 411.699 28.2928 426.92C35.0603 442.141 50.5111 455.426 50.5111 455.426C48.5875 459.025 52.7228 465.105 53.6885 465.386C54.6542 465.667 53.9689 469.289 54.9345 470.647C55.9002 472.005 52.863 477.976 51.7571 481.161C50.6513 484.346 47.4817 487.936 44.5769 490.848C41.6721 493.759 44.8572 494.993 42.4352 497.209C40.0133 499.426 43.0583 499.84 43.0583 499.84C39.328 507.177 53.2757 507.31 57.0061 504.406C60.7364 501.502 60.3158 504.539 65.4246 502.189C70.5333 499.84 70.253 494.993 71.6548 485.017C73.0565 475.042 79.3879 469.523 85.1898 455.957C90.9916 442.391 79.8085 435.624 77.737 433.134C75.6654 430.644 70.5567 428.84 68.2048 423.033C65.8529 417.226 66.4136 416.789 63.2362 412.238C60.0588 407.687 59.9265 404.768 57.7147 397.712C55.503 390.656 51.6403 390.788 51.3678 389.126C51.047 387.343 50.1784 385.706 48.8835 384.442C47.6374 383.334 47.9178 377.94 50.4021 374.069C52.8864 370.197 51.3444 362.158 51.3444 362.158C51.3444 362.158 52.3101 361.19 55.3473 358.005C58.3845 354.82 67.2235 329.125 67.2235 329.125C67.2235 329.125 75.6421 329.608 77.7136 329.608C80.2138 329.424 82.7019 329.101 85.1664 328.641L90.5244 337.289C90.5244 337.289 91.0695 342.168 89.9247 345.797C88.7799 349.427 90.758 353.892 89.4107 364.687C88.0635 375.482 94.1768 382.327 93.2423 389.485C92.3078 396.643 93.5538 404.948 95.4151 408.585C97.2763 412.222 98.4211 415.017 95.8278 421.449C93.2345 427.88 94.9011 436.708 91.934 445.646C88.9668 454.583 87.8999 459.032 87.6896 466.916C87.4794 474.8 83.7958 482.277 81.0389 490.895C78.2821 499.512 80.852 503.758 84.154 509.464C87.456 515.17 81.6697 517.27 86.6383 526.691C91.6069 536.112 85.3923 537.275 87.9856 544.129C90.5789 550.982 84.9562 554.955 91.895 560.419C98.8339 565.883 102.253 559.904 102.253 559.904C106.388 564.158 109.184 558.662 109.184 558.662C112.603 563.127 112.813 557.203 112.813 557.203C116.123 561.355 117.984 555.337 117.984 555.337C121.403 558.553 122.228 550.459 121.613 544.129C120.998 537.798 118.295 539.149 117.057 536.448C115.819 533.747 116.333 531.765 120.78 524.513C125.226 517.262 117.781 514.553 115.71 510.19C113.638 505.827 116.847 505.421 123.988 499.403C131.13 493.385 129.44 476.767 130.304 470.03C131.168 463.294 132.485 446.161 133.824 441.603C135.164 437.044 136.417 434.234 135.794 428.731C135.171 423.228 135.584 422.089 137.765 416.172C139.945 410.255 133.52 401.646 134.556 396.354C135.592 391.062 132.485 385.769 136.417 379.642C140.35 373.515 136.005 376.012 138.59 370.822C141.176 365.631 128.855 357.958 130.802 354.321C132.354 351.389 132.725 347.972 131.838 344.775C131.215 342.808 133.497 335.338 133.497 335.338C133.497 335.338 135.055 336.68 140.638 336.267C146.222 335.853 145.093 329.523 147.266 322.053C149.438 314.583 143.434 311.57 145.093 302.336C146.752 293.102 145.708 284.586 147.055 277.639C148.403 270.692 148.091 258.75 151.409 249.929C154.726 241.109 155.053 230.244 155.053 230.244C156.915 222.352 152.258 205.851 154.843 190.599C157.429 175.347 152.359 174.098 157.436 163.1C162.514 152.102 162.818 139.848 160.956 130.817ZM126.301 222.836C126.301 222.836 120.071 213.563 120.904 205.399C121.738 197.234 118.848 194.33 115.811 191.146C112.774 187.961 113.327 184.23 118.023 178.657C122.719 173.084 124.37 164.685 124.37 162.89C124.37 161.094 127.882 161.087 127.882 161.087C127.882 161.087 127.103 166.488 126.324 170.36C125.546 174.231 127.158 182.677 127.103 187.243C127.049 191.809 127.415 201.215 127.828 208.131C128.24 215.046 126.301 222.836 126.301 222.836Z" fill="#313131"/>
</g>
<defs>
<clipPath id="clip0_418_3126">
<rect width="162" height="562" fill="white" transform="translate(0 0.760254)"/>
</clipPath>
</defs>
</svg>
