<svg width="411" height="707" viewBox="0 0 411 707" fill="none" xmlns="http://www.w3.org/2000/svg">
<g opacity="0.5" clip-path="url(#clip0_418_3107)">
<mask id="path-1-inside-1_418_3107" fill="white">
<path d="M437.92 167.66C431.46 151.13 428.36 154.76 410.69 130.22C393.02 105.68 385.9 101.05 369.76 86.2203C353.62 71.3903 332.47 54.0803 320.2 46.7603C307.93 39.4403 289.34 24.6803 283.29 20.5503C277.24 16.4203 269 18.3103 262.5 17.1503C258.814 16.557 255.322 15.0969 252.31 12.8903L237.33 0.760254L246.75 14.1903L234.36 6.19025L236.17 18.3203L228.3 13.9403V17.3003L223.39 15.4903C223.39 15.4903 228.81 21.9403 222.39 25.6803C215.97 29.4203 211.16 31.3603 205.62 34.9703C200.08 38.5803 200.62 45.9703 200.32 49.0503C200.02 52.1303 193.06 55.7603 193.06 55.7603L195.12 58.7603L191 60.6603C191.45 61.3212 192.024 61.8883 192.69 62.3303C193.59 62.8403 191.92 66.0803 191.92 66.0803C187.78 63.6203 182.62 70.5902 183.01 74.2103C183.4 77.8303 179.77 80.9203 178.61 90.4803C177.45 100.04 185.46 102.22 185.46 102.22C185.46 102.22 181.46 111.39 176.17 127.12C170.88 142.85 160.17 150.5 158.35 150.36C156.53 150.22 150.1 152.05 138.22 155.92C126.34 159.79 100.12 168.7 81 173.98C61.88 179.26 49.51 218.51 47.18 239.42C44.85 260.33 35.3 282.42 34.28 284.87C33.26 287.32 37.89 290.93 37.89 290.93C36.08 294.67 31.18 348.11 31.18 353.93C31.18 359.75 29.76 364.93 30.02 375.62C30.28 386.31 35.02 396.02 42.93 419.62C50.84 443.22 77.66 482.36 81 493.33C84.34 504.3 88.5 503.4 88.36 504.05C88.22 504.7 75 528.18 71.2 537.6C67.4 547.02 58.3 562.6 53.65 579.29C49 595.98 44.36 623.29 45.38 637.5C46.4 651.71 47.46 658.94 45.65 672.5C43.84 686.06 31.44 720.25 31.44 720.25H96.25C96.25 720.25 111.86 689.53 116.51 673.01C121.16 656.49 145.43 622.66 149.69 610.4C153.95 598.14 171.37 562.91 171.37 562.91C171.37 562.91 176.15 566.78 178.47 562.91C180.79 559.04 175 554.76 177.31 554.76C179.62 554.76 203 558.76 203 558.76C206.266 564.276 208.947 570.118 211 576.19C214.61 586.64 230.75 620.72 234.11 643.3C237.47 665.88 250.5 677.76 252.17 683.58C253.84 689.4 254.1 720.76 254.1 720.76L321.1 720.25C321.1 720.25 313.23 696.5 305.87 677.65C298.51 658.8 303.67 661.78 300.45 639.05C297.23 616.32 302.77 606.91 302.26 573.61C301.75 540.31 293.99 529.99 294.38 524.18C294.557 520.506 293.893 516.84 292.44 513.46C292.254 510.591 291.647 507.764 290.64 505.07C288.96 500.56 288.57 491 288.44 484.16C288.31 477.32 287.79 471.52 286.77 468.54C285.75 465.56 283.29 461.19 283.53 453.32C283.77 445.45 281.47 431.88 278.76 423.24C276.05 414.6 274.24 375.61 273.22 354.18C272.2 332.75 278.22 303.18 284.84 272.48C291.46 241.78 305.84 236.71 312.45 231.68C319.06 226.65 327.17 227.29 331.55 227.68C335.93 228.07 340.46 224.58 344.21 224.58C353.375 224.846 362.515 223.492 371.21 220.58C384.21 216.18 396.63 210.25 411.1 205.09C425.57 199.93 424 196.57 430.58 191.27C437.16 185.97 444.38 184.19 437.92 167.66ZM92.92 404.26C92.66 414.84 92.92 422.08 92.92 422.08C92.92 422.08 80.02 382.08 78.59 372.08C77.16 362.08 75.49 356.33 81.81 349.62C88.13 342.91 89.31 319.03 89.31 319.03C89.31 319.03 93.57 353.62 92.14 371.18C90.71 388.74 93.15 393.68 92.89 404.26H92.92ZM341.11 161.46C333.11 163.79 327.17 160.04 323.42 159.26C319.67 158.48 317.87 160.81 314.27 157.47C310.67 154.13 308.07 155 303.67 153.72C299.27 152.44 301.22 156.31 292.97 154.49C284.72 152.67 279.41 152.68 275.54 153.98C271.67 155.28 267.27 154.11 264.17 156.69C261.07 159.27 258.89 159.69 255.53 158.75C252.17 157.81 251.27 155.39 248.05 155.27L244.81 155.14C244.81 155.14 255.41 143.26 256.3 137.58C257.19 131.9 262.24 137.97 268.18 126.49C274.12 115.01 275.28 114.61 277.48 112.8C279.68 110.99 277.99 106.48 277.99 105.44C277.99 105.13 279.21 103.95 280.89 102.17C282.702 103.622 284.4 105.21 285.97 106.92C284.81 104.822 283.489 102.816 282.02 100.92C283.602 99.1847 285.056 97.3365 286.37 95.3903C288.891 97.2788 291.234 99.3943 293.37 101.71C291.742 98.7138 289.83 95.8807 287.66 93.2503C288.06 92.5303 288.44 91.7903 288.78 91.0403C290.927 91.1869 293.077 91.3069 295.23 91.4003C293.23 90.9803 291.23 90.5203 289.23 90.0403C290.03 88.0604 290.444 85.9457 290.45 83.8103C293.006 83.6612 295.571 83.8427 298.08 84.3503C295.609 83.4492 293.03 82.8743 290.41 82.6403C290.41 82.5803 290.41 82.5202 290.41 82.4603C290.3 81.4603 290.16 80.5703 290.02 79.7203L303.84 80.1603L289.52 77.1603C289.45 76.8603 289.38 76.5902 289.32 76.3203L298.32 74.8103L288.77 74.4403C287.64 70.8603 286.85 70.5203 288.84 70.6103C291.84 70.7503 294.65 73.3203 298.26 71.5203C301.87 69.7203 309.26 74.7403 316.72 83.9103C324.18 93.0803 343.44 119.66 348.86 129.08C354.28 138.5 366.94 160.32 366.94 160.32C366.94 160.32 349.12 159.14 341.11 161.46Z"/>
</mask>
<path d="M437.92 167.66C431.46 151.13 428.36 154.76 410.69 130.22C393.02 105.68 385.9 101.05 369.76 86.2203C353.62 71.3903 332.47 54.0803 320.2 46.7603C307.93 39.4403 289.34 24.6803 283.29 20.5503C277.24 16.4203 269 18.3103 262.5 17.1503C258.814 16.557 255.322 15.0969 252.31 12.8903L237.33 0.760254L246.75 14.1903L234.36 6.19025L236.17 18.3203L228.3 13.9403V17.3003L223.39 15.4903C223.39 15.4903 228.81 21.9403 222.39 25.6803C215.97 29.4203 211.16 31.3603 205.62 34.9703C200.08 38.5803 200.62 45.9703 200.32 49.0503C200.02 52.1303 193.06 55.7603 193.06 55.7603L195.12 58.7603L191 60.6603C191.45 61.3212 192.024 61.8883 192.69 62.3303C193.59 62.8403 191.92 66.0803 191.92 66.0803C187.78 63.6203 182.62 70.5902 183.01 74.2103C183.4 77.8303 179.77 80.9203 178.61 90.4803C177.45 100.04 185.46 102.22 185.46 102.22C185.46 102.22 181.46 111.39 176.17 127.12C170.88 142.85 160.17 150.5 158.35 150.36C156.53 150.22 150.1 152.05 138.22 155.92C126.34 159.79 100.12 168.7 81 173.98C61.88 179.26 49.51 218.51 47.18 239.42C44.85 260.33 35.3 282.42 34.28 284.87C33.26 287.32 37.89 290.93 37.89 290.93C36.08 294.67 31.18 348.11 31.18 353.93C31.18 359.75 29.76 364.93 30.02 375.62C30.28 386.31 35.02 396.02 42.93 419.62C50.84 443.22 77.66 482.36 81 493.33C84.34 504.3 88.5 503.4 88.36 504.05C88.22 504.7 75 528.18 71.2 537.6C67.4 547.02 58.3 562.6 53.65 579.29C49 595.98 44.36 623.29 45.38 637.5C46.4 651.71 47.46 658.94 45.65 672.5C43.84 686.06 31.44 720.25 31.44 720.25H96.25C96.25 720.25 111.86 689.53 116.51 673.01C121.16 656.49 145.43 622.66 149.69 610.4C153.95 598.14 171.37 562.91 171.37 562.91C171.37 562.91 176.15 566.78 178.47 562.91C180.79 559.04 175 554.76 177.31 554.76C179.62 554.76 203 558.76 203 558.76C206.266 564.276 208.947 570.118 211 576.19C214.61 586.64 230.75 620.72 234.11 643.3C237.47 665.88 250.5 677.76 252.17 683.58C253.84 689.4 254.1 720.76 254.1 720.76L321.1 720.25C321.1 720.25 313.23 696.5 305.87 677.65C298.51 658.8 303.67 661.78 300.45 639.05C297.23 616.32 302.77 606.91 302.26 573.61C301.75 540.31 293.99 529.99 294.38 524.18C294.557 520.506 293.893 516.84 292.44 513.46C292.254 510.591 291.647 507.764 290.64 505.07C288.96 500.56 288.57 491 288.44 484.16C288.31 477.32 287.79 471.52 286.77 468.54C285.75 465.56 283.29 461.19 283.53 453.32C283.77 445.45 281.47 431.88 278.76 423.24C276.05 414.6 274.24 375.61 273.22 354.18C272.2 332.75 278.22 303.18 284.84 272.48C291.46 241.78 305.84 236.71 312.45 231.68C319.06 226.65 327.17 227.29 331.55 227.68C335.93 228.07 340.46 224.58 344.21 224.58C353.375 224.846 362.515 223.492 371.21 220.58C384.21 216.18 396.63 210.25 411.1 205.09C425.57 199.93 424 196.57 430.58 191.27C437.16 185.97 444.38 184.19 437.92 167.66ZM92.92 404.26C92.66 414.84 92.92 422.08 92.92 422.08C92.92 422.08 80.02 382.08 78.59 372.08C77.16 362.08 75.49 356.33 81.81 349.62C88.13 342.91 89.31 319.03 89.31 319.03C89.31 319.03 93.57 353.62 92.14 371.18C90.71 388.74 93.15 393.68 92.89 404.26H92.92ZM341.11 161.46C333.11 163.79 327.17 160.04 323.42 159.26C319.67 158.48 317.87 160.81 314.27 157.47C310.67 154.13 308.07 155 303.67 153.72C299.27 152.44 301.22 156.31 292.97 154.49C284.72 152.67 279.41 152.68 275.54 153.98C271.67 155.28 267.27 154.11 264.17 156.69C261.07 159.27 258.89 159.69 255.53 158.75C252.17 157.81 251.27 155.39 248.05 155.27L244.81 155.14C244.81 155.14 255.41 143.26 256.3 137.58C257.19 131.9 262.24 137.97 268.18 126.49C274.12 115.01 275.28 114.61 277.48 112.8C279.68 110.99 277.99 106.48 277.99 105.44C277.99 105.13 279.21 103.95 280.89 102.17C282.702 103.622 284.4 105.21 285.97 106.92C284.81 104.822 283.489 102.816 282.02 100.92C283.602 99.1847 285.056 97.3365 286.37 95.3903C288.891 97.2788 291.234 99.3943 293.37 101.71C291.742 98.7138 289.83 95.8807 287.66 93.2503C288.06 92.5303 288.44 91.7903 288.78 91.0403C290.927 91.1869 293.077 91.3069 295.23 91.4003C293.23 90.9803 291.23 90.5203 289.23 90.0403C290.03 88.0604 290.444 85.9457 290.45 83.8103C293.006 83.6612 295.571 83.8427 298.08 84.3503C295.609 83.4492 293.03 82.8743 290.41 82.6403C290.41 82.5803 290.41 82.5202 290.41 82.4603C290.3 81.4603 290.16 80.5703 290.02 79.7203L303.84 80.1603L289.52 77.1603C289.45 76.8603 289.38 76.5902 289.32 76.3203L298.32 74.8103L288.77 74.4403C287.64 70.8603 286.85 70.5203 288.84 70.6103C291.84 70.7503 294.65 73.3203 298.26 71.5203C301.87 69.7203 309.26 74.7403 316.72 83.9103C324.18 93.0803 343.44 119.66 348.86 129.08C354.28 138.5 366.94 160.32 366.94 160.32C366.94 160.32 349.12 159.14 341.11 161.46Z" fill="#393939" stroke="#A5A5A5" stroke-width="2" mask="url(#path-1-inside-1_418_3107)"/>
</g>
<defs>
<clipPath id="clip0_418_3107">
<rect width="410.44" height="720" fill="white" transform="translate(0 0.760254)"/>
</clipPath>
</defs>
</svg>
