<svg viewBox="0 0 16 17" fill="none" xmlns="http://www.w3.org/2000/svg">
<path d="M8 6.52344C7.173 6.52344 6.5 7.19644 6.5 8.02344C6.5 8.85044 7.173 9.52344 8 9.52344C8.827 9.52344 9.5 8.85044 9.5 8.02344C9.5 7.19644 8.827 6.52344 8 6.52344Z" fill="white"/>
<path d="M3 6.52344C2.173 6.52344 1.5 7.19644 1.5 8.02344C1.5 8.85044 2.173 9.52344 3 9.52344C3.827 9.52344 4.5 8.85044 4.5 8.02344C4.5 7.19644 3.827 6.52344 3 6.52344Z" fill="white"/>
<path d="M13 6.52344C12.173 6.52344 11.5 7.19644 11.5 8.02344C11.5 8.85044 12.173 9.52344 13 9.52344C13.827 9.52344 14.5 8.85044 14.5 8.02344C14.5 7.19644 13.827 6.52344 13 6.52344Z" fill="white"/>
</svg>
