<svg width="22" height="22" viewBox="0 0 22 22" fill="none" xmlns="http://www.w3.org/2000/svg">
<path d="M11 8.9375C9.86287 8.9375 8.9375 9.86287 8.9375 11C8.9375 12.1371 9.86287 13.0625 11 13.0625C12.1371 13.0625 13.0625 12.1371 13.0625 11C13.0625 9.86287 12.1371 8.9375 11 8.9375Z" fill="white"/>
<path d="M4.125 8.9375C2.98787 8.9375 2.0625 9.86287 2.0625 11C2.0625 12.1371 2.98787 13.0625 4.125 13.0625C5.26213 13.0625 6.1875 12.1371 6.1875 11C6.1875 9.86287 5.26213 8.9375 4.125 8.9375Z" fill="white"/>
<path d="M17.875 8.9375C16.7379 8.9375 15.8125 9.86287 15.8125 11C15.8125 12.1371 16.7379 13.0625 17.875 13.0625C19.0121 13.0625 19.9375 12.1371 19.9375 11C19.9375 9.86287 19.0121 8.9375 17.875 8.9375Z" fill="white"/>
</svg>
