<svg viewBox="0 0 18 18" fill="none" xmlns="http://www.w3.org/2000/svg">
<path fill-rule="evenodd" clip-rule="evenodd" d="M13.7876 9L13.7876 9.80283C14.1534 9.9321 14.4878 10.1275 14.7767 10.3747L15.4727 9.97289L16.5144 11.7771L15.8188 12.1787C15.853 12.3639 15.8709 12.5549 15.8709 12.75C15.8709 12.9451 15.853 13.1361 15.8188 13.3213L16.5144 13.7229L15.4727 15.5271L14.7767 15.1253C14.4878 15.3725 14.1534 15.5679 13.7876 15.6972L13.7876 16.5H11.7043L11.7042 15.6972C11.3385 15.5679 11.004 15.3725 10.7152 15.1253L10.0192 15.5271L8.9775 13.7229L9.67303 13.3213C9.63881 13.1361 9.62093 12.9451 9.62093 12.75C9.62093 12.5549 9.63881 12.3639 9.67303 12.1787L8.9775 11.7771L10.0192 9.97289L10.7151 10.3747C11.004 10.1275 11.3385 9.9321 11.7042 9.80283L11.7043 9H13.7876ZM8.8125 8.25C9.49576 8.25 10.1384 8.429 10.6984 8.7439C9.24466 9.48983 8.25 11.0038 8.25 12.75C8.25 13.5696 8.46913 14.3381 8.85201 15L2.25 15V12.3C2.25 10.1192 3.92584 8.34093 6.0252 8.25338L6.1875 8.25H8.8125ZM12.7459 11.5C12.0556 11.5 11.4959 12.0596 11.4959 12.75C11.4959 13.4404 12.0556 14 12.7459 14C13.4363 14 13.9959 13.4404 13.9959 12.75C13.9959 12.0596 13.4363 11.5 12.7459 11.5ZM7.5 1.5C8.94975 1.5 10.125 2.67525 10.125 4.125C10.125 5.52642 9.02679 6.67134 7.64403 6.74612L7.5 6.75C6.05025 6.75 4.875 5.57475 4.875 4.125C4.875 2.72358 5.97321 1.57866 7.35597 1.50388L7.5 1.5Z" fill="#FF0000"/>
</svg>
