<svg viewBox="0 0 44 44" fill="none" xmlns="http://www.w3.org/2000/svg">
<path d="M21.9996 3.66669C17.1963 3.66669 13.2913 7.57169 13.2913 12.375C13.2913 17.0867 16.9763 20.9 21.7796 21.065C21.9263 21.0467 22.0729 21.0467 22.1829 21.065C22.2196 21.065 22.2379 21.065 22.2746 21.065C22.2929 21.065 22.2929 21.065 22.3113 21.065C27.0046 20.9 30.6896 17.0867 30.7079 12.375C30.7079 7.57169 26.8029 3.66669 21.9996 3.66669Z" fill="#FF0000"/>
<path d="M31.3135 25.9417C26.1985 22.5317 17.8568 22.5317 12.7052 25.9417C10.3768 27.5 9.09351 29.6083 9.09351 31.8633C9.09351 34.1183 10.3768 36.2083 12.6868 37.7483C15.2535 39.4717 18.6268 40.3333 22.0002 40.3333C25.3735 40.3333 28.7468 39.4717 31.3135 37.7483C33.6235 36.19 34.9068 34.1 34.9068 31.8267C34.8885 29.5717 33.6235 27.4817 31.3135 25.9417Z" fill="#FF0000"/>
</svg>
