<svg viewBox="0 0 28 29" fill="none" xmlns="http://www.w3.org/2000/svg">
<path d="M14 19.5254C15.933 19.5254 17.5 17.9584 17.5 16.0254C17.5 14.0924 15.933 12.5254 14 12.5254C12.067 12.5254 10.5 14.0924 10.5 16.0254C10.5 17.9584 12.067 19.5254 14 19.5254Z" stroke="white" stroke-width="2"/>
<path d="M11.6667 24.1925H16.3333C19.6104 24.1925 21.249 24.1925 22.426 23.406C22.9355 23.0655 23.373 22.628 23.7136 22.1185C24.5 20.9414 24.5 19.3028 24.5 16.0258C24.5 12.7487 24.4999 11.1104 23.7133 9.93338C23.3729 9.42383 22.9354 8.98633 22.4258 8.64585C21.2487 7.85937 19.6103 7.85938 16.3332 7.85938H11.6665C8.38942 7.85938 6.75087 7.85937 5.57383 8.64585C5.06428 8.98633 4.62678 9.42383 4.2863 9.93338C3.5 11.1102 3.5 12.7479 3.5 16.0236V16.0258C3.5 19.3028 3.5 20.9414 4.28647 22.1185C4.62694 22.628 5.06445 23.0655 5.57401 23.406C6.75105 24.1925 8.38958 24.1925 11.6667 24.1925Z" stroke="white" stroke-width="2"/>
<path d="M21.0003 12.5254H20.417" stroke="white" stroke-width="2" stroke-linecap="round"/>
<path d="M16.9163 4.94336H11.083" stroke="white" stroke-width="2" stroke-linecap="round"/>
</svg>
