<svg viewBox="0 0 86 87" fill="none" xmlns="http://www.w3.org/2000/svg">
<path d="M43 58.1934C48.9372 58.1934 53.75 53.3806 53.75 47.4434C53.75 41.5061 48.9372 36.6934 43 36.6934C37.0628 36.6934 32.25 41.5061 32.25 47.4434C32.25 53.3806 37.0628 58.1934 43 58.1934Z" stroke="#FF0000" stroke-width="2" stroke-linecap="round" stroke-linejoin="round"/>
<path d="M10.75 61.06V33.8267C10.75 29.813 10.75 27.8061 11.5311 26.2731C12.2182 24.9246 13.3146 23.8282 14.6631 23.1412C16.1961 22.36 18.203 22.36 22.2167 22.36H25.9958C26.4363 22.36 26.6566 22.36 26.8598 22.3367C27.9201 22.2153 28.8711 21.6276 29.4539 20.7335C29.5656 20.5622 29.6641 20.3651 29.8611 19.9711C30.2551 19.1831 30.4521 18.7891 30.6756 18.4464C31.8411 16.6583 33.7431 15.4828 35.8638 15.2399C36.2701 15.1934 36.7105 15.1934 37.5917 15.1934H48.4083C49.2895 15.1934 49.7299 15.1934 50.1362 15.2399C52.2568 15.4828 54.1589 16.6583 55.3245 18.4464C55.5478 18.7891 55.7448 19.1832 56.139 19.9711C56.3357 20.3651 56.4343 20.5622 56.5461 20.7335C57.1291 21.6276 58.0797 22.2153 59.14 22.3367C59.3436 22.36 59.5636 22.36 60.0043 22.36H63.7833C67.797 22.36 69.8041 22.36 71.337 23.1412C72.6854 23.8282 73.7819 24.9246 74.4688 26.2731C75.25 27.8061 75.25 29.813 75.25 33.8267V61.06C75.25 65.0737 75.25 67.0808 74.4688 68.6137C73.7819 69.9621 72.6854 71.0586 71.337 71.7455C69.8041 72.5267 67.797 72.5267 63.7833 72.5267H22.2167C18.203 72.5267 16.1961 72.5267 14.6631 71.7455C13.3146 71.0586 12.2182 69.9621 11.5311 68.6137C10.75 67.0808 10.75 65.0737 10.75 61.06Z" stroke="#FF0000" stroke-width="2" stroke-linecap="round" stroke-linejoin="round"/>
</svg>
