<svg viewBox="0 0 22 23" fill="none" xmlns="http://www.w3.org/2000/svg">
<path d="M13.3192 9.54063L8.68088 14.179C8.08505 13.5831 7.71838 12.7673 7.71838 11.8598C7.71838 10.0448 9.18505 8.57812 11.0001 8.57812C11.9076 8.57812 12.7234 8.94479 13.3192 9.54063Z" stroke="white" stroke-width="1.5" stroke-linecap="round" stroke-linejoin="round"/>
<path d="M16.335 6.1493C14.7308 4.9393 12.8975 4.2793 11 4.2793C7.76415 4.2793 4.74831 6.18596 2.64915 9.48596C1.82415 10.7785 1.82415 12.951 2.64915 14.2435C3.37331 15.3801 4.21665 16.361 5.13331 17.1493" stroke="white" stroke-width="1.5" stroke-linecap="round" stroke-linejoin="round"/>
<path d="M7.71838 18.7622C8.76338 19.2022 9.87255 19.4406 11.0001 19.4406C14.2359 19.4406 17.2517 17.5339 19.3509 14.2339C20.1759 12.9414 20.1759 10.7689 19.3509 9.47641C19.0484 8.99974 18.7184 8.55057 18.3792 8.12891" stroke="white" stroke-width="1.5" stroke-linecap="round" stroke-linejoin="round"/>
<path d="M14.2174 12.502C13.9791 13.7945 12.9249 14.8486 11.6324 15.087" stroke="white" stroke-width="1.5" stroke-linecap="round" stroke-linejoin="round"/>
<path d="M8.6808 14.1777L1.8333 21.0252" stroke="white" stroke-width="1.5" stroke-linecap="round" stroke-linejoin="round"/>
<path d="M20.1667 2.69336L13.3192 9.54086" stroke="white" stroke-width="1.5" stroke-linecap="round" stroke-linejoin="round"/>
</svg>
