<svg viewBox="0 0 34 35" fill="none" xmlns="http://www.w3.org/2000/svg">
<path d="M26.9167 17.8594C26.9167 23.3362 22.4768 27.776 17 27.776M26.9167 17.8594C26.9167 12.3826 22.4768 7.94271 17 7.94271M26.9167 17.8594H29.75M17 27.776C11.5232 27.776 7.08333 23.3362 7.08333 17.8594M17 27.776V30.6094M17 7.94271C11.5232 7.94271 7.08333 12.3826 7.08333 17.8594M17 7.94271V5.10938M7.08333 17.8594H4.25M21.25 17.8594C21.25 20.2066 19.3473 22.1094 17 22.1094C14.6527 22.1094 12.75 20.2066 12.75 17.8594C12.75 15.5121 14.6527 13.6094 17 13.6094C19.3473 13.6094 21.25 15.5121 21.25 17.8594Z" stroke="#FF0000" stroke-width="2" stroke-linecap="round" stroke-linejoin="round"/>
</svg>
