<svg viewBox="0 0 200 30" fill="none" xmlns="http://www.w3.org/2000/svg">
<path d="M8.39563 17.32H4.11563V29H0.315628V1.44H7.55563C10.9956 1.44 13.5956 2.09333 15.3556 3.4C17.1423 4.70667 18.0356 6.65333 18.0356 9.24C18.0356 11.16 17.5423 12.72 16.5556 13.92C15.569 15.12 14.0756 16.0267 12.0756 16.64L19.5156 29H14.9956L8.39563 17.32ZM7.95563 14.4C9.95563 14.4 11.4623 14 12.4756 13.2C13.489 12.3733 13.9956 11.0533 13.9956 9.24C13.9956 7.53333 13.4756 6.30667 12.4356 5.56C11.4223 4.78667 9.78229 4.4 7.51563 4.4H4.11563V14.4H7.95563ZM40.2544 1.44L39.8144 4.48H29.1344V13.48H38.4144V16.52H29.1344V25.96H40.5744V29H25.3344V1.44H40.2544ZM66.8606 29H61.7806L50.5806 5.6C50.7406 7.44 50.8606 9.14667 50.9406 10.72C51.0473 12.2667 51.1006 14.1467 51.1006 16.36V29H47.5406V1.44H52.5006L63.8206 24.88C63.7406 24.1867 63.634 22.9733 63.5006 21.24C63.3673 19.5067 63.3006 17.92 63.3006 16.48V1.44H66.8606V29ZM91.9253 1.44L91.5253 4.68H83.8853V29H80.0853V4.68H72.2453V1.44H91.9253Z" fill="white"/>
<path d="M120.655 14.44C122.549 14.76 124.082 15.4267 125.255 16.44C126.429 17.4533 127.015 19.0267 127.015 21.16C127.015 26.3867 123.375 29 116.095 29H108.495V1.44H115.015C118.509 1.44 121.175 2.01333 123.015 3.16C124.882 4.30667 125.815 6.05333 125.815 8.4C125.815 10 125.309 11.3333 124.295 12.4C123.309 13.4667 122.095 14.1467 120.655 14.44ZM112.295 4.44V13.12H116.455C118.055 13.12 119.362 12.7333 120.375 11.96C121.415 11.1867 121.935 10.0933 121.935 8.68C121.935 7.08 121.389 5.97333 120.295 5.36C119.229 4.74667 117.602 4.44 115.415 4.44H112.295ZM116.095 25.96C118.335 25.96 120.042 25.6267 121.215 24.96C122.415 24.2933 123.015 23.0267 123.015 21.16C123.015 19.3467 122.442 18.04 121.295 17.24C120.149 16.44 118.655 16.04 116.815 16.04H112.295V25.96H116.095ZM143.471 0.959999C145.791 0.959999 147.818 1.52 149.551 2.64C151.311 3.73333 152.671 5.34667 153.631 7.48C154.618 9.61333 155.111 12.2 155.111 15.24C155.111 18.2267 154.618 20.7867 153.631 22.92C152.671 25.0533 151.311 26.68 149.551 27.8C147.818 28.92 145.791 29.48 143.471 29.48C141.151 29.48 139.111 28.9333 137.351 27.84C135.618 26.7467 134.258 25.1333 133.271 23C132.311 20.8667 131.831 18.2933 131.831 15.28C131.831 12.32 132.311 9.76 133.271 7.6C134.258 5.44 135.631 3.8 137.391 2.68C139.151 1.53333 141.178 0.959999 143.471 0.959999ZM143.471 4.08C141.071 4.08 139.205 4.98667 137.871 6.8C136.538 8.61333 135.871 11.44 135.871 15.28C135.871 19.0933 136.538 21.8933 137.871 23.68C139.231 25.4667 141.098 26.36 143.471 26.36C148.538 26.36 151.071 22.6533 151.071 15.24C151.071 7.8 148.538 4.08 143.471 4.08ZM178.677 1.44L169.797 18.4V29H165.957V18.44L157.077 1.44H161.277L167.997 15.08L174.717 1.44H178.677ZM189.687 0.959999C191.527 0.959999 193.101 1.22667 194.407 1.76C195.714 2.26666 196.981 3.06666 198.207 4.16L196.127 6.48C195.087 5.65333 194.061 5.05333 193.047 4.68C192.061 4.28 190.994 4.08 189.847 4.08C188.407 4.08 187.221 4.41333 186.287 5.08C185.354 5.74667 184.887 6.72 184.887 8C184.887 8.8 185.047 9.48 185.367 10.04C185.687 10.5733 186.274 11.0667 187.127 11.52C188.007 11.9733 189.274 12.4533 190.927 12.96C192.661 13.4933 194.101 14.0667 195.247 14.68C196.394 15.2933 197.314 16.1467 198.007 17.24C198.727 18.3067 199.087 19.6667 199.087 21.32C199.087 22.92 198.687 24.3333 197.887 25.56C197.114 26.7867 195.981 27.7467 194.487 28.44C193.021 29.1333 191.274 29.48 189.247 29.48C185.434 29.48 182.314 28.2933 179.887 25.92L181.967 23.6C183.087 24.5067 184.221 25.2 185.367 25.68C186.514 26.1333 187.794 26.36 189.207 26.36C190.914 26.36 192.327 25.9467 193.447 25.12C194.567 24.2667 195.127 23.04 195.127 21.44C195.127 20.5333 194.954 19.7867 194.607 19.2C194.261 18.5867 193.661 18.04 192.807 17.56C191.981 17.08 190.767 16.6 189.167 16.12C186.341 15.2667 184.274 14.24 182.967 13.04C181.661 11.84 181.007 10.2133 181.007 8.16C181.007 6.77333 181.367 5.53333 182.087 4.44C182.834 3.34667 183.861 2.49333 185.167 1.88C186.501 1.26667 188.007 0.959999 189.687 0.959999Z" fill="#FF0000"/>
</svg>
