<svg viewBox="0 0 24 25" fill="none" xmlns="http://www.w3.org/2000/svg">
<g clip-path="url(#clip0_418_1670)">
<path d="M20 13.8254V12.2254C20 11.3417 19.2837 10.6254 18.4 10.6254H2.39999C1.51633 10.6254 0.799988 11.3417 0.799988 12.2254V21.8254C0.799988 22.7091 1.51633 23.4254 2.39999 23.4254H18.4C19.2837 23.4254 20 22.7091 20 21.8254V20.2254M20 13.8254H13.6C11.8327 13.8254 10.4 15.2581 10.4 17.0254C10.4 18.7928 11.8327 20.2254 13.6 20.2254H20M20 13.8254C21.7673 13.8254 23.2 15.2581 23.2 17.0254C23.2 18.7928 21.7673 20.2254 20 20.2254M5.59999 10.6254V5.82539C5.59999 3.17443 7.74903 1.02539 10.4 1.02539C13.0509 1.02539 15.2 3.17443 15.2 5.82539V10.6254M19.2 17.0254H20.8M16 17.0254H17.6M12.8 17.0254H14.4" stroke="#FF0000" stroke-width="1.5"/>
</g>
<defs>
<clipPath id="clip0_418_1670">
<rect width="24" height="24" fill="white" transform="translate(0 0.224609)"/>
</clipPath>
</defs>
</svg>
