<svg viewBox="0 0 164 165" fill="none" xmlns="http://www.w3.org/2000/svg">
<circle opacity="0.5" cx="82" cy="82.8594" r="81.5" fill="black" stroke="#FF0000"/>
<circle cx="82" cy="82.8594" r="73.5" fill="black" stroke="#FF0000"/>
<mask id="mask0_136_1297" style="mask-type:alpha" maskUnits="userSpaceOnUse" x="10" y="9" width="144" height="145">
<path d="M153.5 81.8729C153.5 121.369 121.488 153.386 82 153.386C42.5117 153.386 10.5 121.369 10.5 81.8729C10.5 42.377 42.5117 10.3594 82 10.3594C121.488 10.3594 153.5 42.377 153.5 81.8729Z" fill="black"/>
<path d="M153.5 81.8729C153.5 121.369 121.488 153.386 82 153.386C42.5117 153.386 10.5 121.369 10.5 81.8729C10.5 42.377 42.5117 10.3594 82 10.3594C121.488 10.3594 153.5 42.377 153.5 81.8729Z" stroke="black"/>
<path d="M153.5 81.8729C153.5 121.369 121.488 153.386 82 153.386C42.5117 153.386 10.5 121.369 10.5 81.8729C10.5 42.377 42.5117 10.3594 82 10.3594C121.488 10.3594 153.5 42.377 153.5 81.8729Z" stroke="black" stroke-opacity="0.2"/>
</mask>
<g mask="url(#mask0_136_1297)">
</g>
<g clip-path="url(#clip0_136_1297)">
<path d="M142.322 123.365L138.416 121.708L112.629 110.765L101.833 106.184L97.4467 81.8966C97.5277 81.6312 97.6004 81.3625 97.673 81.0928C100.396 81.3348 103.679 79.9435 106.251 77.1694C110.045 73.0776 110.847 67.538 108.044 64.797C106.73 63.5112 104.854 63.0794 102.844 63.395L104.146 60.7968C104.738 59.5292 105.198 58.284 105.56 57.0569C106.32 57.3852 107.166 57.656 108.074 57.8458C111.843 58.6315 115.205 57.7189 115.582 55.8074C115.932 54.0344 113.588 52.0258 110.237 51.1175C113.243 48.9745 114.857 46.0597 113.857 44.485C112.819 42.8528 109.366 43.2793 106.146 45.4392C106.038 45.5117 105.935 45.5885 105.83 45.6631C103.451 36.7098 95.0716 30.0933 86.0321 27.6604C84.45 27.2351 82.8317 27.0229 81.205 26.9898C79.5566 20.5376 73.8399 15.7773 67.0405 15.7773C58.9528 15.7773 52.3964 22.511 52.3964 30.8173C52.3964 34.699 53.8289 38.2375 56.1801 40.905C55.1005 42.8166 54.2452 44.9019 53.6732 47.144L46.6215 74.777C44.2329 84.1387 49.6859 93.7168 58.8013 96.17L62.3214 97.1178C62.1906 97.5997 62.3639 98.1626 62.9702 98.3236C63.1197 98.363 63.2712 98.3982 63.4217 98.4355L65.8944 112.131L55.5521 116.855L48.8451 119.919L26.5452 130.107L26.541 130.109C26.5763 130.151 26.6147 130.19 26.65 130.232C27.1888 130.86 27.739 131.477 28.2985 132.086C28.4345 132.234 28.5725 132.381 28.7096 132.528C29.294 133.155 29.8857 133.777 30.4909 134.382C30.5397 134.431 30.5885 134.48 30.6373 134.529C30.9476 134.839 31.2601 135.145 31.5757 135.448C31.6286 135.5 31.6826 135.551 31.7366 135.602C33.1266 136.931 34.5664 138.206 36.0539 139.423C36.0654 139.433 36.0768 139.442 36.0872 139.451C36.4256 139.728 36.7681 140.001 37.1117 140.271C37.1834 140.327 37.256 140.385 37.3277 140.441C37.6588 140.7 37.992 140.956 38.3273 141.21C38.4021 141.266 38.4778 141.323 38.5526 141.378C38.9003 141.639 39.2502 141.898 39.6031 142.152C39.6073 142.155 39.6125 142.159 39.6166 142.162C40.7772 142.999 41.9627 143.802 43.1699 144.57C43.2218 144.603 43.2737 144.637 43.3267 144.67C43.6765 144.892 44.0295 145.11 44.3835 145.325C44.4841 145.386 44.5838 145.448 44.6845 145.507C45.0302 145.715 45.3769 145.921 45.7257 146.124C45.8243 146.18 45.9229 146.237 46.0215 146.293C46.3849 146.502 46.7492 146.709 47.1167 146.911C47.1354 146.922 47.1541 146.932 47.1728 146.942C48.3925 147.614 49.634 148.249 50.8943 148.851C50.9866 148.896 51.079 148.94 51.1714 148.984C51.5285 149.152 51.8877 149.318 52.2479 149.48C52.3756 149.537 52.5043 149.596 52.633 149.652C52.9881 149.81 53.3441 149.966 53.7012 150.118C53.8237 150.171 53.9462 150.221 54.0687 150.273C54.4434 150.43 54.8192 150.586 55.1971 150.737C55.223 150.747 55.25 150.757 55.276 150.768C56.557 151.277 57.8546 151.75 59.1688 152.187C59.2933 152.228 59.4179 152.271 59.5425 152.311C59.9079 152.431 60.2753 152.546 60.6428 152.66C60.7913 152.706 60.9408 152.752 61.0902 152.796C61.4567 152.907 61.8242 153.015 62.1937 153.121C62.3318 153.16 62.4698 153.197 62.6079 153.236C62.9972 153.343 63.3865 153.451 63.7778 153.552C63.7934 153.557 63.8079 153.56 63.8235 153.564C64.5906 153.762 65.3629 153.946 66.1394 154.118C66.2495 154.143 66.3595 154.169 66.4695 154.193C66.5599 154.212 66.6481 154.235 66.7384 154.254C67.41 154.398 68.0869 154.531 68.7658 154.656C68.937 154.688 69.1094 154.716 69.2806 154.745C69.8879 154.853 70.4983 154.953 71.1097 155.045C71.3371 155.079 71.5644 155.113 71.7918 155.145C72.563 155.254 73.3354 155.354 74.1139 155.438C74.1409 155.442 74.1679 155.445 74.1949 155.448C74.77 155.51 75.3472 155.562 75.9254 155.61C75.9835 155.614 76.0416 155.622 76.0998 155.626C76.6427 155.67 77.1877 155.704 77.7327 155.735C77.8271 155.74 77.9205 155.748 78.015 155.753C78.5507 155.782 79.0884 155.801 79.6271 155.818C79.7299 155.821 79.8316 155.827 79.9344 155.83C80.5749 155.847 81.2175 155.855 81.8611 155.855C82.6697 155.855 83.4742 155.837 84.2767 155.81C84.3919 155.806 84.5061 155.802 84.6213 155.797C85.3283 155.769 86.0321 155.73 86.7348 155.684C86.8085 155.678 86.8833 155.677 86.957 155.672C87.1137 155.661 87.2684 155.642 87.4252 155.63C88.0034 155.585 88.5805 155.535 89.1556 155.477C89.3923 155.452 89.629 155.429 89.8657 155.403C90.6339 155.318 91.4 155.224 92.1609 155.115C92.1889 155.111 92.2159 155.108 92.2439 155.104C93.9567 154.855 95.6498 154.547 97.3222 154.179C97.3326 154.177 97.3429 154.175 97.3533 154.172C98.6125 153.895 99.8592 153.584 101.092 153.242C102.327 152.9 103.548 152.526 104.755 152.119C104.771 152.114 104.789 152.108 104.806 152.102C106.408 151.563 107.986 150.968 109.538 150.321C109.56 150.312 109.581 150.303 109.603 150.294C112.038 149.275 114.409 148.126 116.707 146.855C117.167 146.601 117.623 146.342 118.076 146.078C118.984 145.55 119.879 145.003 120.762 144.437C120.781 144.425 120.798 144.413 120.817 144.402C121.632 143.878 122.433 143.335 123.226 142.78C123.464 142.614 123.698 142.442 123.933 142.274C124.273 142.031 124.615 141.793 124.951 141.545C125.224 141.342 125.491 141.132 125.761 140.925C125.894 140.824 126.028 140.723 126.161 140.62C126.887 140.057 127.602 139.481 128.307 138.891C128.449 138.772 128.59 138.65 128.732 138.53C129.455 137.915 130.17 137.292 130.87 136.651C130.891 136.631 130.914 136.61 130.936 136.59C132.158 135.467 133.342 134.3 134.489 133.095C134.552 133.03 134.614 132.965 134.676 132.899C135.792 131.718 136.871 130.499 137.911 129.246C137.989 129.152 138.066 129.058 138.142 128.964C138.559 128.458 138.966 127.943 139.368 127.426C139.457 127.313 139.549 127.204 139.636 127.09C139.73 126.968 139.819 126.843 139.911 126.72C140.187 126.356 140.459 125.991 140.728 125.622C140.838 125.47 140.951 125.322 141.061 125.17C141.449 124.63 141.829 124.085 142.202 123.535C142.242 123.478 142.283 123.421 142.323 123.363L142.322 123.365Z" fill="#DC814A"/>
<path d="M142.322 123.364L138.416 121.708L112.629 110.765L101.833 106.184L102.929 112.258L102.926 112.259C102.928 112.271 102.933 112.283 102.935 112.295C103.434 115.06 95.7983 118.833 85.8784 120.722C75.9586 122.612 67.5128 121.902 67.0135 119.136C66.9761 118.928 66.9896 118.713 67.0426 118.495L65.8934 112.133L55.5511 116.857L48.8441 119.921L26.5452 130.107L26.541 130.109C26.5763 130.15 26.6147 130.19 26.65 130.231C27.1888 130.859 27.739 131.476 28.2985 132.085C28.4345 132.233 28.5725 132.381 28.7096 132.528C29.294 133.155 29.8857 133.776 30.4909 134.382C30.5397 134.431 30.5885 134.48 30.6373 134.529C30.9476 134.838 31.2601 135.144 31.5757 135.448C31.6286 135.499 31.6826 135.55 31.7366 135.601C33.1266 136.931 34.5664 138.206 36.0539 139.422C36.0654 139.432 36.0768 139.442 36.0872 139.45C36.4256 139.727 36.7681 140 37.1117 140.27C37.1834 140.326 37.256 140.384 37.3277 140.441C37.6588 140.7 37.992 140.955 38.3273 141.209C38.4021 141.266 38.4778 141.322 38.5526 141.378C38.9003 141.639 39.2502 141.898 39.6031 142.152C39.6073 142.155 39.6125 142.158 39.6166 142.161C40.7772 142.998 41.9627 143.801 43.1699 144.57C43.2218 144.603 43.2737 144.637 43.3267 144.67C43.6765 144.892 44.0295 145.109 44.3835 145.324C44.4841 145.385 44.5838 145.447 44.6845 145.507C45.0302 145.715 45.3769 145.92 45.7257 146.123C45.8243 146.179 45.9229 146.236 46.0215 146.292C46.3849 146.501 46.7492 146.708 47.1167 146.911C47.1354 146.922 47.1541 146.931 47.1728 146.942C48.3925 147.613 49.634 148.249 50.8943 148.85C50.9866 148.895 51.079 148.94 51.1714 148.983C51.5285 149.152 51.8877 149.317 52.2479 149.479C52.3756 149.537 52.5043 149.595 52.633 149.652C52.9881 149.81 53.3441 149.965 53.7012 150.118C53.8237 150.17 53.9462 150.22 54.0687 150.272C54.4434 150.429 54.8192 150.586 55.1971 150.736C55.223 150.747 55.25 150.756 55.276 150.767C56.557 151.277 57.8546 151.749 59.1688 152.186C59.2933 152.228 59.4179 152.27 59.5425 152.311C59.9079 152.43 60.2753 152.545 60.6428 152.659C60.7913 152.705 60.9408 152.751 61.0902 152.796C61.4567 152.907 61.8242 153.014 62.1937 153.12C62.3318 153.159 62.4698 153.197 62.6079 153.235C62.9972 153.343 63.3865 153.451 63.7778 153.552C63.7934 153.556 63.8079 153.559 63.8235 153.564C64.5906 153.762 65.3629 153.945 66.1394 154.118C66.2495 154.142 66.3595 154.168 66.4695 154.193C66.5599 154.212 66.6481 154.234 66.7384 154.253C67.41 154.397 68.0869 154.531 68.7658 154.655C68.937 154.687 69.1094 154.715 69.2806 154.745C69.8879 154.852 70.4983 154.953 71.1097 155.044C71.3371 155.078 71.5644 155.113 71.7918 155.145C72.563 155.253 73.3354 155.354 74.1139 155.438C74.1409 155.441 74.1679 155.444 74.1949 155.447C74.77 155.509 75.3472 155.561 75.9254 155.609C75.9835 155.614 76.0416 155.621 76.0998 155.625C76.6427 155.669 77.1877 155.703 77.7327 155.734C77.8271 155.739 77.9205 155.747 78.015 155.752C78.5507 155.781 79.0884 155.8 79.6271 155.817C79.7299 155.821 79.8316 155.827 79.9344 155.829C80.5749 155.846 81.2175 155.855 81.8611 155.855C82.6697 155.855 83.4742 155.837 84.2767 155.81C84.3919 155.806 84.5061 155.801 84.6213 155.796C85.3283 155.768 86.0321 155.73 86.7348 155.683C86.8085 155.678 86.8833 155.677 86.957 155.671C87.1137 155.661 87.2684 155.641 87.4252 155.63C88.0034 155.585 88.5805 155.535 89.1556 155.476C89.3923 155.452 89.629 155.428 89.8657 155.403C90.6339 155.317 91.4 155.223 92.1609 155.115C92.1889 155.11 92.2159 155.107 92.2439 155.103C93.9567 154.855 95.6498 154.546 97.3222 154.179C97.3326 154.177 97.3429 154.174 97.3533 154.171C98.6125 153.894 99.8592 153.584 101.092 153.242C102.327 152.899 103.548 152.525 104.755 152.119C104.771 152.114 104.789 152.107 104.806 152.102C106.408 151.562 107.986 150.967 109.538 150.32C109.56 150.312 109.581 150.302 109.603 150.294C112.038 149.274 114.409 148.125 116.707 146.854C117.167 146.601 117.623 146.342 118.076 146.077C118.984 145.549 119.879 145.002 120.762 144.436C120.781 144.425 120.798 144.413 120.817 144.401C121.632 143.878 122.433 143.334 123.226 142.78C123.464 142.613 123.698 142.442 123.933 142.273C124.273 142.03 124.615 141.792 124.951 141.544C125.224 141.341 125.491 141.131 125.761 140.925C125.894 140.823 126.028 140.722 126.161 140.62C126.887 140.057 127.602 139.48 128.307 138.89C128.449 138.771 128.59 138.649 128.732 138.529C129.455 137.915 130.17 137.291 130.87 136.65C130.891 136.63 130.914 136.61 130.936 136.59C132.158 135.466 133.342 134.3 134.489 133.095C134.552 133.03 134.614 132.965 134.676 132.899C135.792 131.717 136.871 130.499 137.911 129.245C137.989 129.151 138.066 129.057 138.142 128.964C138.559 128.457 138.966 127.942 139.368 127.425C139.457 127.312 139.549 127.203 139.636 127.089C139.73 126.968 139.819 126.842 139.911 126.719C140.187 126.356 140.459 125.99 140.728 125.621C140.838 125.47 140.951 125.322 141.061 125.169C141.449 124.63 141.829 124.084 142.202 123.535C142.242 123.477 142.283 123.421 142.323 123.362L142.322 123.364Z" fill="#66519D"/>
<path d="M112.629 110.766C112.351 111.552 112.029 112.322 111.672 113.065C110.241 116.04 108.294 118.699 106.329 121.342C105.674 122.222 105.017 123.102 104.376 123.991C103.319 125.458 102.284 127.004 101.869 128.778C101.456 130.552 101.79 132.622 103.131 133.82C103.682 134.312 104.333 134.604 105.027 134.738C105.218 134.774 105.413 134.798 105.609 134.811C106.988 134.902 108.478 134.44 109.692 133.712C110.449 133.258 111.153 132.718 111.844 132.161C112.305 131.79 112.762 131.41 113.226 131.045C113.574 130.769 113.927 130.502 114.288 130.25C114.65 129.999 115.022 129.762 115.408 129.55C115.73 129.373 116.071 129.217 116.425 129.088C116.778 128.959 117.143 128.856 117.511 128.782C117.953 128.695 118.4 128.651 118.839 128.657C119.277 128.665 119.708 128.722 120.115 128.84C120.794 129.034 121.412 129.391 121.906 129.944C123.143 131.331 123.162 133.408 123.293 135.283C123.442 137.41 123.837 139.566 124.871 141.415L124.954 141.548C125.227 141.345 125.495 141.135 125.765 140.929C125.898 140.827 126.032 140.726 126.164 140.624C126.89 140.061 127.605 139.484 128.31 138.894C128.452 138.775 128.594 138.653 128.736 138.533C129.458 137.919 130.173 137.295 130.873 136.654C130.895 136.634 130.918 136.614 130.94 136.594C132.161 135.47 133.346 134.304 134.493 133.099C134.555 133.034 134.617 132.969 134.68 132.903C135.796 131.721 136.874 130.503 137.914 129.249C137.992 129.155 138.069 129.061 138.146 128.968C138.562 128.461 138.969 127.946 139.372 127.429C139.46 127.316 139.552 127.207 139.64 127.093C139.733 126.972 139.822 126.846 139.915 126.723C140.191 126.36 140.463 125.994 140.732 125.625C140.842 125.474 140.955 125.326 141.065 125.173C141.452 124.634 141.832 124.088 142.206 123.539C142.245 123.481 142.287 123.425 142.326 123.366L142.323 123.365L138.418 121.708L112.629 110.766Z" fill="#FCBF3C"/>
<path d="M43.1939 125.403C45.8535 130.046 50.4781 133.452 55.6124 134.551C58.3072 135.128 61.4723 134.939 63.317 132.84C64.4007 131.606 64.845 129.876 64.7713 128.217C64.6281 124.999 62.6827 122.107 60.2754 120.041C58.8263 118.797 57.2079 117.797 55.5522 116.855L48.8452 119.92L41.998 123.048C42.3718 123.855 42.7621 124.648 43.1939 125.403Z" fill="#FCBF3C"/>
<path d="M86.2768 150.124C86.6443 147.502 87.5754 144.94 87.481 142.292C87.3855 139.645 85.8055 136.746 83.2425 136.446C81.13 136.198 79.2407 137.766 77.8321 139.4C73.7971 144.082 71.2849 150.184 66.7402 154.256C67.4119 154.399 68.0887 154.533 68.7676 154.657C68.9389 154.689 69.1112 154.717 69.2825 154.747C69.8898 154.855 70.5001 154.955 71.1116 155.047C71.3389 155.081 71.5662 155.115 71.7936 155.147C72.5649 155.256 73.3372 155.356 74.1158 155.44C74.1427 155.443 74.1697 155.446 74.1967 155.45C74.7718 155.511 75.349 155.564 75.9272 155.612C75.9853 155.616 76.0435 155.623 76.1016 155.628C76.6445 155.671 77.1895 155.705 77.7345 155.736C77.829 155.742 77.9224 155.749 78.0168 155.754C78.5525 155.783 79.0902 155.802 79.629 155.82C79.7317 155.823 79.8335 155.829 79.9362 155.831C80.5767 155.848 81.2193 155.857 81.8629 155.857C82.6716 155.857 83.4761 155.84 84.2785 155.812C84.3937 155.808 84.5079 155.804 84.6232 155.798C85.3301 155.77 86.0339 155.732 86.7367 155.685C86.8104 155.68 86.8851 155.679 86.9588 155.673C86.173 154.052 86.0183 151.967 86.2768 150.124Z" fill="#FCBF3C"/>
<path d="M81.8465 98.7909C83.0268 98.3879 82.5212 96.4604 81.3305 96.8676C78.5495 97.8186 75.4748 97.8303 72.5765 97.7035C69.5214 97.5702 66.4497 97.1875 63.486 96.3996C62.8819 96.2386 62.4511 96.6373 62.3203 97.1171C62.1895 97.599 62.3628 98.1619 62.9691 98.3229C63.1186 98.3623 63.2701 98.3975 63.4206 98.4348C66.4082 99.1875 69.509 99.5649 72.5754 99.6982C75.6357 99.8315 78.9118 99.7941 81.8465 98.7909Z" fill="#BA612D"/>
<path d="M65.5508 61.919C63.7362 63.5107 61.9216 65.1035 60.1071 66.6953C59.1977 67.4927 58.2271 68.2166 57.9219 69.4885C57.6282 70.7093 57.9572 71.9023 58.7223 72.8607C58.9766 73.1795 59.2445 73.4887 59.505 73.8021C60.377 74.8501 61.25 75.8992 62.122 76.9483C62.9348 77.9259 64.303 76.509 63.4954 75.5378C62.804 74.7062 62.1127 73.8757 61.4213 73.0441C60.7995 72.2957 59.6462 71.3361 59.7562 70.2412C59.8507 69.2966 60.8317 68.6761 61.4805 68.1068C62.559 67.1601 63.6376 66.2144 64.7161 65.2677C65.4521 64.6216 66.1881 63.9756 66.9241 63.3295C67.875 62.4947 66.4964 61.0896 65.5508 61.919Z" fill="#BA612D"/>
<path d="M76.7084 78.2102C75.1129 81.0461 71.9 82.5312 68.7744 81.8105C67.5567 81.5301 67.0366 83.4523 68.2584 83.7338C72.2291 84.6485 76.344 82.8446 78.3859 79.2166C79.0119 78.1036 77.3343 77.0982 76.7084 78.2102Z" fill="#BA612D"/>
<path d="M58.4235 60.967C59.1024 61.1781 59.9131 60.467 60.2349 59.3774C60.5557 58.2889 60.2661 57.2345 59.5872 57.0234C58.9083 56.8123 58.0975 57.5234 57.7757 58.612C57.4539 59.7015 57.7446 60.756 58.4235 60.967Z" fill="#010202"/>
<path d="M78.0359 60.5508C77.357 60.3397 76.5463 61.0508 76.2245 62.1404C75.9037 63.2289 76.1934 64.2833 76.8723 64.4944C77.5512 64.7055 78.3619 63.9944 78.6827 62.9048C79.0045 61.8163 78.7148 60.7619 78.0359 60.5508Z" fill="#010202"/>
<path d="M56.4813 41.2366C60.9336 46.3646 72.258 56.0451 94.1915 58.348C94.1915 58.348 87.7149 67.7608 92.9821 72.7588C93.4845 70.8718 94.533 68.9336 96.1015 67.2416C98.1164 65.0688 100.567 63.7511 102.845 63.394L104.148 60.7958C104.739 59.5282 105.199 58.2829 105.561 57.0558C106.321 57.3842 107.167 57.655 108.075 57.8447C111.844 58.6305 115.206 57.7179 115.583 55.8063C115.934 54.0333 113.589 52.0247 110.238 51.1164C113.244 48.9735 114.859 46.0587 113.858 44.484C112.82 42.8517 109.367 43.2782 106.147 45.4382C106.039 45.5107 105.936 45.5874 105.831 45.6621C103.452 36.7087 95.0728 30.0923 86.0332 27.6594C84.4512 27.234 82.8328 27.0218 81.2062 26.9888C79.5567 20.5376 73.84 15.7773 67.0406 15.7773C58.953 15.7773 52.3965 22.511 52.3965 30.8173C52.3965 34.699 53.829 38.2375 56.1803 40.905C56.2789 41.0169 56.3817 41.1246 56.4823 41.2334C56.4823 41.2344 56.4813 41.2355 56.4813 41.2366Z" fill="#1D1D1D"/>
<path d="M99.1668 75.6521C99.1076 75.5923 99.0536 75.5294 98.9996 75.4655C98.9851 75.4367 98.8948 75.3024 98.8802 75.2757C98.8616 75.2416 98.7889 75.0614 98.7847 75.0636C98.7588 74.9847 98.7318 74.9068 98.7121 74.8258C98.7048 74.7949 98.6757 74.62 98.6674 74.5923C98.6591 74.5017 98.6519 74.4111 98.6498 74.3194C98.6477 74.1989 98.6508 74.0774 98.6602 73.9569C98.6633 73.9132 98.6674 73.8705 98.6726 73.8268C98.6747 73.8108 98.6789 73.7885 98.6841 73.7575C98.9114 72.6999 99.3287 71.8705 100.068 71.0869C100.079 71.0752 100.092 71.0656 100.103 71.0538C100.175 71.0922 100.249 71.1221 100.32 71.1636C100.518 71.2809 100.696 71.4302 100.891 71.5517C100.883 71.5464 100.879 71.5443 100.872 71.54C100.879 71.5453 100.886 71.5496 100.891 71.5538L101.01 71.6573C101.097 71.734 101.181 71.814 101.263 71.8961C101.427 72.0603 101.578 72.2362 101.725 72.4163C101.726 72.4174 101.726 72.4174 101.727 72.4195L101.799 72.5208C101.872 72.6253 101.94 72.7319 102.007 72.8407C102.127 73.04 102.236 73.2469 102.333 73.4601L102.359 73.5187C102.366 73.5347 102.365 73.5337 102.369 73.5432L102.382 73.5752C102.423 73.685 102.462 73.7949 102.496 73.9068C102.569 74.1413 102.626 74.3791 102.669 74.6211C102.762 75.135 103.394 75.474 103.864 75.3173C104.4 75.1392 104.642 74.6414 104.542 74.0902C104.236 72.3961 103.221 70.8246 101.846 69.8139C102.072 69.7201 102.308 69.6444 102.555 69.589C102.584 69.5826 102.785 69.5506 102.806 69.5442C102.899 69.5357 102.991 69.5271 103.084 69.525C103.198 69.5229 103.309 69.5314 103.422 69.5335C103.446 69.5357 103.462 69.5378 103.476 69.5389C103.507 69.5442 103.538 69.5495 103.569 69.5559C103.673 69.5783 103.777 69.606 103.878 69.6412C103.906 69.6508 103.934 69.6615 103.962 69.6721C103.973 69.6775 103.987 69.6849 104.008 69.6945C104.098 69.75 104.188 69.8022 104.277 69.8576C104.283 69.8619 104.286 69.864 104.291 69.8672L104.387 69.9546C104.772 70.3193 105.379 70.347 105.761 69.9546C106.121 69.5847 106.148 68.9109 105.761 68.5442C104.2 67.0676 101.891 67.3885 100.195 68.4461C98.3155 69.6178 96.8508 71.7138 96.7148 74.0027C96.6484 75.1254 97.0065 76.2661 97.7934 77.0625C98.6851 77.9645 100.06 76.5551 99.1668 75.6521Z" fill="#BA612D"/>
<path d="M57.787 34.2374C58.3403 34.0817 58.5469 33.5444 58.4649 33.0103C57.7974 28.6455 60.2857 24.2446 64.2958 22.6624C64.7847 22.4694 65.1231 21.9918 64.9736 21.4353C64.8449 20.9545 64.2709 20.544 63.7788 20.7391C61.4151 21.672 59.3878 23.3255 58.058 25.5527C56.6286 27.9451 56.1718 30.7874 56.5922 33.5412C56.6732 34.0732 57.322 34.3685 57.787 34.2374Z" fill="white"/>
</g>
<defs>
<clipPath id="clip0_136_1297">
<rect width="115.784" height="140.081" fill="white" transform="translate(26.541 15.7773)"/>
</clipPath>
</defs>
</svg>
